<svg width="17" height="18" viewBox="0 0 17 18" fill="none" xmlns="http://www.w3.org/2000/svg">
<path fill-rule="evenodd" clip-rule="evenodd" d="M11.6876 3.67205V3.83269C12.3639 3.8946 13.0345 3.97601 13.699 4.07636C13.945 4.11351 14.1902 4.15327 14.4345 4.19559C14.7236 4.24566 14.9174 4.52062 14.8673 4.80971C14.8172 5.09881 14.5423 5.29257 14.2532 5.24249C14.2039 5.23395 14.1545 5.22552 14.1051 5.2172L13.393 14.4755C13.3078 15.5826 12.3846 16.4375 11.2742 16.4375H5.72595C4.61556 16.4375 3.69237 15.5826 3.60721 14.4755L2.89503 5.2172C2.84566 5.22552 2.79631 5.23395 2.74701 5.24249C2.45792 5.29257 2.18296 5.09881 2.13288 4.80971C2.0828 4.52062 2.27657 4.24566 2.56566 4.19559C2.80997 4.15327 3.05515 4.11351 3.30117 4.07636C3.96566 3.97601 4.63632 3.8946 5.31259 3.83269V3.67205C5.31259 2.56388 6.17146 1.61788 7.30685 1.58156C7.70306 1.56888 8.10084 1.5625 8.50009 1.5625C8.89934 1.5625 9.29711 1.56888 9.69332 1.58156C10.8287 1.61788 11.6876 2.56388 11.6876 3.67205ZM7.34083 2.64352C7.72572 2.6312 8.11217 2.625 8.50009 2.625C8.88801 2.625 9.27446 2.6312 9.65935 2.64352C10.1939 2.66061 10.6251 3.10945 10.6251 3.67205V3.75183C9.92216 3.70915 9.21362 3.6875 8.50009 3.6875C7.78655 3.6875 7.07801 3.70915 6.37509 3.75183V3.67205C6.37509 3.10945 6.80631 2.66061 7.34083 2.64352ZM7.08951 6.85458C7.07824 6.5614 6.83142 6.33287 6.53824 6.34414C6.24505 6.35542 6.01652 6.60223 6.0278 6.89542L6.27299 13.2704C6.28427 13.5636 6.53108 13.7921 6.82426 13.7809C7.11745 13.7696 7.34598 13.5228 7.3347 13.2296L7.08951 6.85458ZM10.9717 6.89542C10.983 6.60223 10.7545 6.35542 10.4613 6.34414C10.1681 6.33287 9.92128 6.5614 9.91001 6.85458L9.66482 13.2296C9.65354 13.5228 9.88207 13.7696 10.1753 13.7809C10.4684 13.7921 10.7153 13.5636 10.7265 13.2704L10.9717 6.89542Z" fill="#ED273E"/>
</svg>
